<svg enable-background="new 0 0 85 85" viewBox="0 0 85 85" xmlns="http://www.w3.org/2000/svg" xmlns:xlink="http://www.w3.org/1999/xlink"><linearGradient id="a"><stop offset=".02149471" stop-color="#7dc0f6"/><stop offset="1" stop-color="#aedcfc"/></linearGradient><radialGradient id="b" cx="71.0472" cy="37.9492" gradientUnits="userSpaceOnUse" r="3.8346" xlink:href="#a"/><radialGradient id="c" cx="14.6798" cy="37.9492" gradientUnits="userSpaceOnUse" r="3.8346" xlink:href="#a"/><radialGradient id="d" cx="34.3599" cy="50.5961" gradientUnits="userSpaceOnUse" r="10.2831" xlink:href="#a"/><radialGradient id="e" cx="47.9389" cy="55.9273" gradientUnits="userSpaceOnUse" r="14.1509" xlink:href="#a"/><radialGradient id="f" cx="28.6201" cy="58.0089" gradientUnits="userSpaceOnUse" r="4.8551" xlink:href="#a"/><clipPath id="g"><path d="m52.2 37.5c-1.2 0-1.8-.3-1.8-1 0-1.1-1-1.5-2.8-1.5-1.1 0-1.5-.3-1.7-.9-.1-.5.1-1.2-1-1.4-1.8-.4-3.6-.4-5.2.1-.7.2-.6.7-.7 1.1-.1.8-.6 1.2-2.1 1.2-1.7 0-2.4.5-2.4 1.4 0 .7-.6 1.1-1.9 1.1-1.7-.1-2.6.4-2.6 1.4 0 .7-.6 1.1-1.9 1.1-1.8 0-2.6.6-2.6 1.6 0 .7-.6 1-1.7 1-.9 0-1.5.1-2 .4-.4.3-.6.6-.7 1.1 0 .7-.6 1-1.7 1-1.7 0-2.7.4-2.7 1.5 0 .7-.7 1.1-1.9 1.1-1.7 0-2.5.5-2.5 1.5 0 .7-.7 1.1-1.9 1.1-1.6 0-2.5.5-2.5 1.4 0 .8-.8 1.1-2.1 1.2-.7 0-1.6 0-1.9.4-.8 1-.8 2-.2 3 .3.7 1.5.5 2.3.6 1.1.1 1.6.4 1.6 1 0 1 .8 1.6 2.7 1.6 1.2 0 1.8.4 1.8 1.1 0 1 .9 1.5 2.7 1.5 1.2 0 1.8.4 1.8 1.1 0 1 1 1.5 2.7 1.5 1.1 0 1.7.3 1.8 1 0 1 .9 1.6 2.7 1.6 1.1 0 1.8.3 1.7 1 0 1.1 1.1 1.6 2.9 1.6 1.1 0 1.5.3 1.6.9 0 1 .8 1.7 2.8 1.7 1.2 0 1.7.4 1.7 1 0 1.1 1 1.5 2.8 1.6 1.2 0 1.6.4 1.7 1 .4 1.3 1.2 1.7 3.6 1.6 2.4 0 3-.3 3.4-1.6.2-.7.7-1 1.9-1 1.8 0 2.6-.5 2.6-1.5 0-.7.7-1 1.9-1 1.8 0 2.6-.5 2.6-1.5 0-.6.5-1 1.7-1 1.8 0 2.8-.5 2.8-1.6 0-.7.7-1 1.9-1 .7 0 1.4-.2 2-.3.1-.4.4-.8.4-1.2.1-.7.6-1.1 1.8-1.1 1.8 0 2.7-.6 2.7-1.6 0-.7.7-1 1.8-1 1.7 0 2.7-.5 2.7-1.5 0-.7.6-1.1 1.8-1.1 1.7 0 2.7-.5 2.7-1.5 0-.7.6-1 1.8-1.1 2.3-.2 2.7-.5 2.8-1.9s-.5-1.9-2.8-2.1c-1.1-.1-1.7-.3-1.8-1 0-1-.9-1.6-2.7-1.6-1.1 0-1.8-.3-1.8-1 0-1.1-1.1-1.6-2.9-1.6-1 0-1.5-.3-1.6-.9 0-1-.8-1.7-2.8-1.7-1.2 0-1.7-.4-1.7-1 0-1.1-1-1.6-2.7-1.6-1.2 0-1.7-.4-1.7-1 0-1-.8-1.5-2.6-1.5-1.2 0-1.9-.3-1.9-1-.1-1.2-.9-1.8-2.7-1.8z"/></clipPath><linearGradient id="h" gradientUnits="userSpaceOnUse" x1="42.4669" x2="42.594" y1="33.7335" y2="45.5604"><stop offset="0" stop-color="#fff"/><stop offset="1" stop-color="#fff" stop-opacity="0"/></linearGradient><path d="m52.2 37.5c-1.2 0-1.8-.3-1.8-1 0-1.1-1-1.5-2.8-1.5-1.1 0-1.5-.3-1.7-.9-.1-.5.1-1.2-1-1.4-1.8-.4-3.6-.4-5.2.1-.7.2-.6.7-.7 1.1-.1.8-.6 1.2-2.1 1.2-1.7 0-2.4.5-2.4 1.4 0 .7-.6 1.1-1.9 1.1-1.7-.1-2.6.4-2.6 1.4 0 .7-.6 1.1-1.9 1.1-1.8 0-2.6.6-2.6 1.6 0 .7-.6 1-1.7 1-.9 0-1.5.1-2 .4-.4.3-.6.6-.7 1.1 0 .7-.6 1-1.7 1-1.7 0-2.7.4-2.7 1.5 0 .7-.7 1.1-1.9 1.1-1.7 0-2.5.5-2.5 1.5 0 .7-.7 1.1-1.9 1.1-1.6 0-2.5.5-2.5 1.4 0 .8-.8 1.1-2.1 1.2-.7 0-1.6 0-1.9.4-.8 1-.8 2-.2 3 .3.7 1.5.5 2.3.6 1.1.1 1.6.4 1.6 1 0 1 .8 1.6 2.7 1.6 1.2 0 1.8.4 1.8 1.1 0 1 .9 1.5 2.7 1.5 1.2 0 1.8.4 1.8 1.1 0 1 1 1.5 2.7 1.5 1.1 0 1.7.3 1.8 1 0 1 .9 1.6 2.7 1.6 1.1 0 1.8.3 1.7 1 0 1.1 1.1 1.6 2.9 1.6 1.1 0 1.5.3 1.6.9 0 1 .8 1.7 2.8 1.7 1.2 0 1.7.4 1.7 1 0 1.1 1 1.5 2.8 1.6 1.2 0 1.6.4 1.7 1 .4 1.3 1.2 1.7 3.6 1.6 2.4 0 3-.3 3.4-1.6.2-.7.7-1 1.9-1 1.8 0 2.6-.5 2.6-1.5 0-.7.7-1 1.9-1 1.8 0 2.6-.5 2.6-1.5 0-.6.5-1 1.7-1 1.8 0 2.8-.5 2.8-1.6 0-.7.7-1 1.9-1 .7 0 1.4-.2 2-.3.1-.4.4-.8.4-1.2.1-.7.6-1.1 1.8-1.1 1.8 0 2.7-.6 2.7-1.6 0-.7.7-1 1.8-1 1.7 0 2.7-.5 2.7-1.5 0-.7.6-1.1 1.8-1.1 1.7 0 2.7-.5 2.7-1.5 0-.7.6-1 1.8-1.1 2.3-.2 2.7-.5 2.8-1.9s-.5-1.9-2.8-2.1c-1.1-.1-1.7-.3-1.8-1 0-1-.9-1.6-2.7-1.6-1.1 0-1.8-.3-1.8-1 0-1.1-1.1-1.6-2.9-1.6-1 0-1.5-.3-1.6-.9 0-1-.8-1.7-2.8-1.7-1.2 0-1.7-.4-1.7-1 0-1.1-1-1.6-2.7-1.6-1.2 0-1.7-.4-1.7-1 0-1-.8-1.5-2.6-1.5-1.2 0-1.9-.3-1.9-1-.1-1.2-.9-1.8-2.7-1.8z" fill="#f9f6bb"/><path clip-rule="evenodd" d="m71 42.3c-.6 0-1.2-.2-1.7-.5-.4-.3-.8-.6-1-1-.3-.5-.5-1.1-.4-1.8 0-.3.1-.6.2-.8.2-.5.4-.9.6-1.3.3-.5.7-1.1 1-1.6.4-.6.8-1.1 1.2-1.6.1-.1.1-.1.1 0 .4.5.8 1.1 1.2 1.6.3.4.6.8.8 1.3.2.4.5.8.6 1.2.2.4.3.8.4 1.2v.7c-.1.4-.2.7-.4 1-.1.2-.3.5-.5.7-.3.3-.7.6-1.1.8-.1.1-.5.1-1 .1zm-2.1-3.1c0 .5.2 1 .6 1.5.2.2.4.3.6.4h.1s0-.1.1-.1v-.1c-.2-.1-.4-.2-.5-.4-.4-.6-.6-1.2-.4-1.9v-.1c-.1 0-.1 0-.2-.1h-.1c-.1.2-.2.4-.2.8z" fill="url(#b)" fill-rule="evenodd"/><path clip-rule="evenodd" d="m14.6 42.3c-.6 0-1.2-.2-1.7-.5-.4-.3-.8-.6-1-1-.3-.5-.5-1.1-.4-1.8 0-.3.1-.6.2-.8.2-.5.4-.9.6-1.3.3-.5.7-1.1 1-1.6.4-.6.8-1.1 1.2-1.6.1-.1.1-.1.1 0 .4.5.8 1.1 1.2 1.6.3.4.6.8.8 1.3.2.4.5.8.6 1.2.2.4.3.8.4 1.2v.7c-.1.4-.2.7-.4 1-.1.2-.3.5-.5.7-.3.3-.7.6-1.1.8-.1.1-.5.1-1 .1zm-2-3.1c0 .5.2 1 .6 1.5.2.2.4.3.6.4h.1s0-.1.1-.1v-.1c-.2-.1-.4-.2-.5-.4-.4-.6-.6-1.2-.4-1.9v-.1c-.1 0-.1 0-.2-.1h-.1c-.2.2-.2.4-.2.8z" fill="url(#c)" fill-rule="evenodd"/><ellipse cx="34.4" cy="50.6" fill="url(#d)" rx="13" ry="6.6"/><ellipse cx="47.9" cy="55.9" fill="url(#e)" rx="17.8" ry="9.1"/><ellipse cx="28.6" cy="58" fill="url(#f)" rx="6.1" ry="3.1"/><path d="m32.5 47.3c-.5 0-1.5-.7-1.5-1.2-.1-1.4 4.5-1.3 6.2.6.9 1 1.6 2.2 2.1 3.5-.4-.6-2.9-2.5-6.8-2.9z" fill="#b5b58c"/><path d="m32.2 45.1c-3 0-5.5 1.9-5.9 4.4.4 2.5 2.9 4.4 5.9 4.4s5.5-1.9 5.9-4.4c-.4-2.5-2.9-4.4-5.9-4.4z" fill="#b28d60"/><path d="m32 48.3c.3.4.8 1.4 1.9 2 .5.3 1.4.3 1.9.2.4-.1 1.1-.2 1.3-.6 0-.1 0-.2 0-.2 0-2-2.3-3.6-5.1-3.6-1.4 0-2.8.4-3.7 1.1.3-.2.7-.3 1.1-.3 1.3-.2 2.3 1 2.6 1.4z" fill="#77532d"/><path d="m28.9 49.8c-.2-.4-1.1-.8-1.5-.7-1.4.3 1.6 3.7 4.1 4 1.3.1 2.5-.1 3.4-.6-1 .4-4.4.5-6-2.7z" fill="#77532d"/><path d="m42.8 55.8c-.5 0-1.5-.7-1.5-1.2-.1-1.4 4.5-1.3 6.2.6.9 1 1.6 2.2 2.1 3.5-.4-.6-2.8-2.5-6.8-2.9z" fill="#b5b58c"/><path d="m42.6 53.6c-3 0-5.5 1.9-5.9 4.4.4 2.5 2.9 4.4 5.9 4.4s5.5-1.9 5.9-4.4c-.5-2.5-3-4.4-5.9-4.4z" fill="#b28d60"/><path d="m42.3 56.8c.3.4.8 1.4 1.9 2 .5.3 1.4.3 1.9.2.4-.1 1.1-.2 1.3-.6 0-.1 0-.2 0-.2 0-2-2.3-3.6-5.1-3.6-1.4 0-2.8.4-3.7 1.1.3-.2.7-.3 1.1-.3 1.3-.2 2.3 1 2.6 1.4z" fill="#77532d"/><path d="m39.3 58.3c-.2-.4-1.1-.8-1.5-.7-1.4.3 1.6 3.7 4.1 4 1.3.1 2.5-.1 3.4-.6-1.1.4-4.5.5-6-2.7z" fill="#77532d"/><path d="m53.4 47.3c-.5 0-1.5-.7-1.5-1.2-.1-1.4 4.5-1.3 6.2.6.9 1 1.6 2.2 2.1 3.5-.5-.6-2.9-2.5-6.8-2.9z" fill="#b5b58c"/><path d="m53.1 45.1c-3 0-5.5 1.9-5.9 4.4.4 2.5 2.9 4.4 5.9 4.4s5.5-1.9 5.9-4.4c-.4-2.5-2.9-4.4-5.9-4.4z" fill="#b28d60"/><path d="m52.9 48.3c.3.4.8 1.4 1.9 2 .5.3 1.4.3 1.9.2.4-.1 1.1-.2 1.3-.6 0-.1 0-.2 0-.2 0-2-2.3-3.6-5.1-3.6-1.4 0-2.8.4-3.7 1.1.3-.2.7-.3 1.1-.3 1.3-.2 2.3 1 2.6 1.4z" fill="#77532d"/><path d="m49.8 49.8c-.2-.4-1.1-.8-1.5-.7-1.4.3 1.6 3.7 4.1 4 1.3.1 2.5-.1 3.4-.6-1 .4-4.4.5-6-2.7z" fill="#77532d"/><path clip-path="url(#g)" clip-rule="evenodd" d="m9.7 31.3h65.7v16.5h-65.7z" fill="url(#h)" fill-rule="evenodd"/><path d="m21.5 35c-.2-.3-.4-.6-.4-.9-.1-.5-.6-.8-1.8-.8-1.9 0-2.7-.4-2.7-1.2 0-.5-.7-.8-1.8-.8-1.7 0-2.7-.4-2.7-1.2 0-.5-.6-.8-1.8-.8-1.7 0-2.7-.4-2.7-1.2 0-.5-.6-.8-1.8-.8-2.4-.2-2.8-.5-2.8-1.5-.1-1.1.5-1.4 2.8-1.6 1.1-.1 1.7-.3 1.8-.8 0-.8.9-1.2 2.7-1.2 1.1 0 1.8-.3 1.8-.8 0-.9 1.1-1.2 2.9-1.2 1 0 1.5-.2 1.6-.7 0-.8.8-1.3 2.8-1.3 1.2 0 1.7-.3 1.7-.8 0-.8 1-1.2 2.8-1.2 1.2 0 1.7-.3 1.7-.8 0-.8.8-1.2 2.6-1.2 1.2 0 1.9-.3 1.9-.8 0-.8.9-1.2 2.6-1.2 1.2 0 1.9-.3 1.8-.8 0-.8 1-1.2 2.8-1.2 1.1 0 1.5-.3 1.7-.7.1-.4-.1-.9 1-1.1 1.8-.4 3.6-.4 5.3 0 .7.1.6.6.7.8.1.6.6 1 2.1.9 1.7 0 2.4.4 2.4 1.1 0 .6.6.9 1.9.9 1.7 0 2.6.4 2.6 1.1 0 .6.6.9 1.9.9 1.8 0 2.6.4 2.6 1.2 0 .5.6.8 1.7.8 1.8 0 2.7.4 2.7 1.2 0 .5.6.8 1.8.8 1.8 0 2.7.4 2.7 1.2 0 .5.6.8 1.8.8 1.9 0 2.7.4 2.7 1.2 0 .5.5.8 1.6.8 1.8 0 2.9.4 2.9 1.2 0 .5.5.7 1.6.8 2.5.2 3.2.7 2.9 1.9-.2.8-.9 1.2-2.7 1.2-1.2 0-1.8.3-1.8.8 0 .8-.9 1.2-2.7 1.2-1.2 0-1.8.3-1.8.8 0 .7-.8 1.1-2.5 1.2-1.2 0-2 .3-2 .8 0 .7-.8 1.1-2.5 1.2-1.2 0-1.9.3-1.9.9 0 .8-.9 1.1-2.6 1.2-1.5.1-3 .2-4.6.2-10 0-20 0-30.1 0-1.6 0-3.1-.2-4.6-.4-.2 0-.3-.1-.6-.1z" fill="#f9f6bb"/><path d="m21.7 35.4h1.6 38.8c.5 0 1.6.3 1.5-.3 0-.4.1-.9-1.4-1-.3 0-.5-.1-.8-.1-2.6 0-3.9-.6-4-1.8 0-.6-.6-1-2.1-1-2.9 0-4.1-.7-4.2-1.9 0-.6-.7-.8-1.9-.9-2.9 0-4.3-.7-4.3-1.9 0-.6-.9-.8-2.2-.8s-2.4.1-2.4.8c0 1.3-1.5 1.9-4.3 1.9-1.3 0-1.9.3-1.9.9 0 1.3-1.6 1.9-4.4 1.9-1.2 0-1.8.3-1.8.8 0 1.3-1.6 2-4.5 2-.3 0-.7 0-1 .1-.8.4-.5.9-.7 1.3z" fill="#dbd69a"/></svg>