<?xml version="1.0" standalone="no"?>
<svg xmlns:xlink="http://www.w3.org/1999/xlink" id="wave" style="transform:rotate(180deg); transition: 0.3s" viewBox="0 0 1440 370" version="1.1" xmlns="http://www.w3.org/2000/svg"><defs><linearGradient id="sw-gradient-0" x1="0" x2="0" y1="1" y2="0"><stop stop-color="rgba(103, 133, 75, 1)" offset="0%"/><stop stop-color="rgba(53, 79, 65, 1)" offset="100%"/></linearGradient></defs><path style="transform:translate(0, 0px); opacity:1" fill="url(#sw-gradient-0)" d="M0,0L48,0C96,0,192,0,288,37C384,74,480,148,576,191.2C672,234,768,247,864,228.2C960,210,1056,160,1152,172.7C1248,185,1344,259,1440,265.2C1536,271,1632,210,1728,197.3C1824,185,1920,222,2016,252.8C2112,284,2208,308,2304,283.7C2400,259,2496,185,2592,166.5C2688,148,2784,185,2880,215.8C2976,247,3072,271,3168,240.5C3264,210,3360,123,3456,98.7C3552,74,3648,111,3744,141.8C3840,173,3936,197,4032,172.7C4128,148,4224,74,4320,49.3C4416,25,4512,49,4608,86.3C4704,123,4800,173,4896,185C4992,197,5088,173,5184,154.2C5280,136,5376,123,5472,135.7C5568,148,5664,185,5760,209.7C5856,234,5952,247,6048,209.7C6144,173,6240,86,6336,98.7C6432,111,6528,222,6624,222C6720,222,6816,111,6864,55.5L6912,0L6912,370L6864,370C6816,370,6720,370,6624,370C6528,370,6432,370,6336,370C6240,370,6144,370,6048,370C5952,370,5856,370,5760,370C5664,370,5568,370,5472,370C5376,370,5280,370,5184,370C5088,370,4992,370,4896,370C4800,370,4704,370,4608,370C4512,370,4416,370,4320,370C4224,370,4128,370,4032,370C3936,370,3840,370,3744,370C3648,370,3552,370,3456,370C3360,370,3264,370,3168,370C3072,370,2976,370,2880,370C2784,370,2688,370,2592,370C2496,370,2400,370,2304,370C2208,370,2112,370,2016,370C1920,370,1824,370,1728,370C1632,370,1536,370,1440,370C1344,370,1248,370,1152,370C1056,370,960,370,864,370C768,370,672,370,576,370C480,370,384,370,288,370C192,370,96,370,48,370L0,370Z"/></svg>