<?xml version="1.0" standalone="no"?>
<svg xmlns:xlink="http://www.w3.org/1999/xlink" id="wave" style="transform:rotate(180deg); transition: 0.3s" viewBox="0 0 1440 300" version="1.1" xmlns="http://www.w3.org/2000/svg"><defs><linearGradient id="sw-gradient-0" x1="0" x2="0" y1="1" y2="0"><stop stop-color="rgba(103, 133, 75, 1)" offset="0%"/><stop stop-color="rgba(53, 79, 65, 1)" offset="100%"/></linearGradient></defs><path style="transform:translate(0, 0px); opacity:1" fill="url(#sw-gradient-0)" d="M0,210L48,195C96,180,192,150,288,130C384,110,480,100,576,105C672,110,768,130,864,145C960,160,1056,170,1152,160C1248,150,1344,120,1440,105C1536,90,1632,90,1728,105C1824,120,1920,150,2016,150C2112,150,2208,120,2304,110C2400,100,2496,110,2592,135C2688,160,2784,200,2880,190C2976,180,3072,120,3168,125C3264,130,3360,200,3456,190C3552,180,3648,90,3744,70C3840,50,3936,100,4032,115C4128,130,4224,110,4320,120C4416,130,4512,170,4608,190C4704,210,4800,210,4896,205C4992,200,5088,190,5184,200C5280,210,5376,240,5472,255C5568,270,5664,270,5760,260C5856,250,5952,230,6048,205C6144,180,6240,150,6336,155C6432,160,6528,200,6624,215C6720,230,6816,220,6864,215L6912,210L6912,300L6864,300C6816,300,6720,300,6624,300C6528,300,6432,300,6336,300C6240,300,6144,300,6048,300C5952,300,5856,300,5760,300C5664,300,5568,300,5472,300C5376,300,5280,300,5184,300C5088,300,4992,300,4896,300C4800,300,4704,300,4608,300C4512,300,4416,300,4320,300C4224,300,4128,300,4032,300C3936,300,3840,300,3744,300C3648,300,3552,300,3456,300C3360,300,3264,300,3168,300C3072,300,2976,300,2880,300C2784,300,2688,300,2592,300C2496,300,2400,300,2304,300C2208,300,2112,300,2016,300C1920,300,1824,300,1728,300C1632,300,1536,300,1440,300C1344,300,1248,300,1152,300C1056,300,960,300,864,300C768,300,672,300,576,300C480,300,384,300,288,300C192,300,96,300,48,300L0,300Z"/></svg>