<?xml version="1.0" standalone="no"?>
<svg xmlns:xlink="http://www.w3.org/1999/xlink" id="wave" style="transform:rotate(0deg); transition: 0.3s" viewBox="0 0 1440 490" version="1.1" xmlns="http://www.w3.org/2000/svg"><defs><linearGradient id="sw-gradient-0" x1="0" x2="0" y1="1" y2="0"><stop stop-color="rgba(52, 78, 65, 1)" offset="0%"/><stop stop-color="rgba(139, 171, 80, 1)" offset="100%"/></linearGradient></defs><path style="transform:translate(0, 0px); opacity:1" fill="url(#sw-gradient-0)" d="M0,245L120,277.7C240,310,480,376,720,375.7C960,376,1200,310,1440,245C1680,180,1920,114,2160,122.5C2400,131,2640,212,2880,228.7C3120,245,3360,196,3600,212.3C3840,229,4080,310,4320,285.8C4560,261,4800,131,5040,89.8C5280,49,5520,98,5760,98C6000,98,6240,49,6480,49C6720,49,6960,98,7200,114.3C7440,131,7680,114,7920,98C8160,82,8400,65,8640,122.5C8880,180,9120,310,9360,343C9600,376,9840,310,10080,302.2C10320,294,10560,343,10800,310.3C11040,278,11280,163,11520,130.7C11760,98,12000,147,12240,204.2C12480,261,12720,327,12960,326.7C13200,327,13440,261,13680,204.2C13920,147,14160,98,14400,106.2C14640,114,14880,180,15120,236.8C15360,294,15600,343,15840,351.2C16080,359,16320,327,16560,285.8C16800,245,17040,196,17160,171.5L17280,147L17280,490L17160,490C17040,490,16800,490,16560,490C16320,490,16080,490,15840,490C15600,490,15360,490,15120,490C14880,490,14640,490,14400,490C14160,490,13920,490,13680,490C13440,490,13200,490,12960,490C12720,490,12480,490,12240,490C12000,490,11760,490,11520,490C11280,490,11040,490,10800,490C10560,490,10320,490,10080,490C9840,490,9600,490,9360,490C9120,490,8880,490,8640,490C8400,490,8160,490,7920,490C7680,490,7440,490,7200,490C6960,490,6720,490,6480,490C6240,490,6000,490,5760,490C5520,490,5280,490,5040,490C4800,490,4560,490,4320,490C4080,490,3840,490,3600,490C3360,490,3120,490,2880,490C2640,490,2400,490,2160,490C1920,490,1680,490,1440,490C1200,490,960,490,720,490C480,490,240,490,120,490L0,490Z"/></svg>