<?xml version="1.0" standalone="no"?>
<svg xmlns:xlink="http://www.w3.org/1999/xlink" id="wave" style="transform:rotate(0deg); transition: 0.3s" viewBox="0 0 1440 380" version="1.1" xmlns="http://www.w3.org/2000/svg"><defs><linearGradient id="sw-gradient-0" x1="0" x2="0" y1="1" y2="0"><stop stop-color="rgba(52, 78, 65, 1)" offset="0%"/><stop stop-color="rgba(139, 171, 80, 1)" offset="100%"/></linearGradient></defs><path style="transform:translate(0, 0px); opacity:1" fill="url(#sw-gradient-0)" d="M0,190L48,215.3C96,241,192,291,288,291.3C384,291,480,241,576,190C672,139,768,89,864,95C960,101,1056,165,1152,177.3C1248,190,1344,152,1440,164.7C1536,177,1632,241,1728,221.7C1824,203,1920,101,2016,69.7C2112,38,2208,76,2304,76C2400,76,2496,38,2592,38C2688,38,2784,76,2880,88.7C2976,101,3072,89,3168,76C3264,63,3360,51,3456,95C3552,139,3648,241,3744,266C3840,291,3936,241,4032,234.3C4128,228,4224,266,4320,240.7C4416,215,4512,127,4608,101.3C4704,76,4800,114,4896,158.3C4992,203,5088,253,5184,253.3C5280,253,5376,203,5472,158.3C5568,114,5664,76,5760,82.3C5856,89,5952,139,6048,183.7C6144,228,6240,266,6336,272.3C6432,279,6528,253,6624,221.7C6720,190,6816,152,6864,133L6912,114L6912,380L6864,380C6816,380,6720,380,6624,380C6528,380,6432,380,6336,380C6240,380,6144,380,6048,380C5952,380,5856,380,5760,380C5664,380,5568,380,5472,380C5376,380,5280,380,5184,380C5088,380,4992,380,4896,380C4800,380,4704,380,4608,380C4512,380,4416,380,4320,380C4224,380,4128,380,4032,380C3936,380,3840,380,3744,380C3648,380,3552,380,3456,380C3360,380,3264,380,3168,380C3072,380,2976,380,2880,380C2784,380,2688,380,2592,380C2496,380,2400,380,2304,380C2208,380,2112,380,2016,380C1920,380,1824,380,1728,380C1632,380,1536,380,1440,380C1344,380,1248,380,1152,380C1056,380,960,380,864,380C768,380,672,380,576,380C480,380,384,380,288,380C192,380,96,380,48,380L0,380Z"/></svg>